<svg width="78" height="25" viewBox="0 0 78 25" fill="none" xmlns="http://www.w3.org/2000/svg">
<path d="M37.6797 22.9378C37.6381 22.8296 37.5981 19.0024 37.5907 14.4328L37.5773 6.12459H38.4394C39.3905 6.12459 39.4545 6.17295 39.5853 6.99062C39.6276 7.25524 39.7225 7.47174 39.7962 7.47174C39.87 7.47174 40.2286 7.21083 40.5932 6.89195C41.5178 6.08338 42.3388 5.80144 43.7336 5.8136C44.992 5.82458 45.4183 5.94628 46.2453 6.53057C47.427 7.36543 48.0193 8.97502 48.0319 11.3849C48.0483 14.5542 46.9086 16.7336 44.6932 17.7691C43.9812 18.1019 43.6288 18.1824 42.686 18.2274C41.9807 18.2611 41.2661 18.2159 40.8213 18.1095C40.4247 18.0146 40.0424 17.935 39.9717 17.9326C39.8923 17.9298 39.8188 18.9074 39.779 20.4942L39.7148 23.0602L38.7351 23.0974C37.9494 23.1272 37.7403 23.0957 37.6797 22.9378L37.6797 22.9378ZM43.3615 16.2653C44.2109 15.9659 44.752 15.4677 45.1877 14.5837C45.7181 13.5075 45.9123 12.0897 45.7242 10.6666C45.4408 8.52232 44.5 7.49807 42.9549 7.65145C42.5469 7.69195 42.0513 7.80866 41.8535 7.91081C41.3759 8.1575 39.9296 9.71103 39.8408 10.0727C39.8022 10.2299 39.787 11.5993 39.8069 13.1159L39.8433 15.8733L40.5497 16.1591C41.386 16.4974 42.5754 16.5423 43.3615 16.2653H43.3615ZM3.66534 18.0518C2.28091 17.743 1.8857 17.536 1.89468 17.1246C1.90576 16.6173 2.08982 15.5659 2.18406 15.4718C2.22833 15.4276 2.56976 15.5232 2.9428 15.6843C4.39926 16.3131 6.04862 16.5047 7.21717 16.1807C7.98727 15.9671 8.7765 15.1193 8.88636 14.3875C9.05546 13.2612 8.37376 12.3752 6.47802 11.2575C2.95277 9.17912 2.01947 8.10339 2.01673 6.11537C2.01511 4.81021 2.30148 4.08799 3.16293 3.22663C4.27498 2.11467 4.95643 1.89388 7.28182 1.89211C8.86479 1.89094 9.28406 1.93457 10.0755 2.18306C10.5877 2.34386 11.0134 2.54593 11.0216 2.63211C11.0539 2.9752 10.9774 4.46259 10.9228 4.55177C10.8908 4.60406 10.6509 4.55383 10.3898 4.44012C8.70619 3.70707 6.86237 3.51007 5.77021 3.94657C4.73367 4.36083 4.15566 5.4855 4.45564 6.50442C4.66764 7.22449 5.77963 8.26783 7.29027 9.16407C10.3068 10.9537 11.2645 12.0681 11.2937 13.8226C11.314 15.047 10.9692 15.8716 10.0548 16.7847C8.94945 17.8886 8.23119 18.1476 6.12579 18.2014C5.03551 18.2293 4.24583 18.1813 3.66534 18.0518ZM16.8987 18.0548C15.1418 17.4948 13.8486 15.8721 13.4387 13.7132C13.256 12.7507 13.2956 10.8222 13.5155 9.97892C13.9592 8.27741 15.0625 6.88577 16.502 6.21184C17.1255 5.91997 17.4442 5.86145 18.6102 5.82475C20.2397 5.77346 21.1812 5.99497 21.8584 6.58895C22.3425 7.01345 22.6159 7.69671 22.5464 8.30801C22.5034 8.68606 22.4926 8.69104 21.6365 8.72851L20.7702 8.76643L20.5565 8.31866C20.2677 7.71374 19.8397 7.56407 18.555 7.61873C17.3453 7.6702 16.9966 7.85671 16.3659 8.7895C15.782 9.65299 15.5979 10.5142 15.6496 12.14C15.6913 13.452 15.7304 13.643 16.1184 14.4301C16.9686 16.1552 18.4916 16.8035 20.3923 16.2493C20.776 16.1374 21.3413 15.9007 21.6486 15.7232C21.9559 15.5458 22.2542 15.4497 22.3116 15.5097C22.3689 15.5697 22.4354 15.9617 22.4594 16.3808C22.5017 17.1232 22.4916 17.1504 22.0646 17.4404C21.34 17.9327 20.4227 18.1535 18.9063 18.2005C17.9078 18.2315 17.319 18.1888 16.8987 18.0548V18.0548ZM27.4848 18.0628C25.7539 17.5225 24.4232 16.0532 23.9055 14.1105C23.6544 13.1687 23.6684 10.7816 23.9301 9.90064C24.4459 8.1641 25.3246 7.06818 26.7755 6.35197L27.7559 5.86798H29.4324C30.9823 5.86798 31.1643 5.89393 31.8433 6.21183C33.1929 6.84366 34.224 8.06416 34.7166 9.61307C35.0243 10.5802 35.0932 12.7566 34.8489 13.7917C34.3278 16.0003 32.9068 17.5286 30.8712 18.07C30.0431 18.2902 28.2008 18.2863 27.4848 18.0628L27.4848 18.0628ZM30.9804 16.1203C32.0172 15.5859 32.7671 13.8155 32.7417 11.9622C32.7199 10.3645 32.3514 9.27801 31.565 8.4925C30.8748 7.80316 30.3432 7.60185 29.2101 7.60076C27.5409 7.59913 26.6221 8.47523 26.0803 10.585C25.8372 11.5319 25.9014 13.0659 26.2287 14.1302C26.4798 14.9466 27.5004 16.055 28.2188 16.2914C28.918 16.5216 30.3773 16.4311 30.9804 16.1203ZM52.6398 18.0303C51.8724 17.7594 51.1659 17.0193 50.8731 16.1795C50.6554 15.5551 50.6328 15.0511 50.6328 10.8075V6.12459L51.612 6.08741C52.5386 6.05223 52.5954 6.06601 52.6699 6.34401C52.7133 6.50559 52.7498 8.42758 52.7512 10.6151C52.7527 13.006 52.8078 14.787 52.8893 15.0804C52.9639 15.3487 53.1851 15.7473 53.3808 15.9661C53.678 16.2983 53.8537 16.3736 54.4465 16.4227C55.6147 16.5195 56.4734 16.1958 57.1777 15.3933C58.2886 14.1276 58.2755 14.1938 58.2755 9.86894V6.06044H59.2312C59.7569 6.06044 60.2152 6.10606 60.2497 6.16182C60.2842 6.21758 60.3256 8.88783 60.3416 12.0957L60.3708 17.9282L59.6334 17.967C58.7596 18.013 58.5591 17.8835 58.4501 17.203C58.3404 16.5175 58.1868 16.4744 57.748 17.0061C57.5416 17.2563 57.0174 17.6383 56.5833 17.855C55.8523 18.2198 55.6981 18.2482 54.4979 18.2388C53.6812 18.2324 52.994 18.1553 52.6398 18.0303H52.6398ZM64.9547 18.0664C64.108 17.8326 63.4322 17.4842 63.356 17.2422C63.2817 17.0065 63.4592 15.7227 63.5832 15.5989C63.6266 15.5555 64.0934 15.7329 64.6206 15.9931C66.2233 16.7841 68.0053 16.7612 68.8285 15.939C69.1267 15.6411 69.1935 15.4633 69.1935 14.9673C69.1935 14.4308 69.1365 14.3061 68.7033 13.8944C68.4336 13.6382 67.643 13.1515 66.9463 12.8129C65.255 11.991 64.313 11.3338 63.8595 10.6595C63.5449 10.1919 63.4771 9.94665 63.4393 9.13964C63.4007 8.31682 63.4389 8.09374 63.7026 7.60004C64.0943 6.86671 64.9013 6.24874 65.8129 5.98402C66.8928 5.67044 69.1335 5.77994 70.1569 6.19629L70.9275 6.50986L70.9607 7.27947C71.0106 8.43503 70.9165 8.50034 69.9257 7.99799C68.9627 7.50979 67.4078 7.32066 66.5856 7.59172C66.013 7.78045 65.4682 8.3999 65.4694 8.86081C65.4713 9.65231 66.0629 10.1536 68.2349 11.2043C70.5965 12.3466 71.5303 13.5383 71.3375 15.164C71.1855 16.4456 70.3254 17.4863 69.0128 17.9768C68.4268 18.1958 68.0162 18.2467 66.9087 18.2375C66.1519 18.2312 65.2726 18.1542 64.9547 18.0664H64.9547ZM73.8523 5.48533C73.0715 5.14629 72.6807 4.00307 73.0923 3.26219C73.3525 2.79373 73.951 2.46983 74.5581 2.46889C74.9989 2.46825 75.1958 2.55036 75.5662 2.88943C76.4327 3.68256 76.2231 5.05032 75.1676 5.49081C74.624 5.71769 74.3851 5.7167 73.8523 5.48532V5.48533ZM74.8988 5.05119C74.9366 4.99006 74.8481 4.83205 74.7021 4.70007C74.4427 4.46561 74.4326 4.46565 74.2597 4.70183C74.1624 4.83477 74.1132 4.99278 74.1504 5.05295C74.2389 5.19588 74.8101 5.19454 74.8988 5.05119V5.05119ZM73.8133 3.97557L73.8091 3.17369L73.5565 3.47658C73.2712 3.81862 73.2503 3.97842 73.4291 4.44834C73.6483 5.02404 73.8178 4.81538 73.8134 3.97557H73.8133ZM75.6159 4.01182C75.6159 3.7197 75.5285 3.45521 75.3909 3.33081C75.0516 3.02409 74.53 2.85826 74.3207 2.99058C74.1864 3.07548 74.2271 3.10613 74.4762 3.10758C74.9552 3.11034 75.1488 3.3979 75.0448 3.95181C74.9905 4.24105 75.0152 4.48046 75.1115 4.5963C75.3491 4.88229 75.6159 4.57315 75.6159 4.01182ZM74.5883 3.67932C74.5883 3.56931 74.5296 3.51556 74.4578 3.55989C74.386 3.60421 74.3605 3.69422 74.4011 3.75991C74.5112 3.93786 74.5883 3.90468 74.5883 3.67932Z" fill="#FF8200"/>
</svg>
