<svg width="23" height="14" viewBox="0 0 23 14" fill="none" xmlns="http://www.w3.org/2000/svg">
<path d="M1 6V11C1 12.1046 1.89543 13 3 13H20.3896C21.4942 13 22.3896 12.1046 22.3896 11V6" stroke="#C9CCD7"/>
<path d="M11.3418 9.35355C11.537 9.54882 11.8536 9.54882 12.0489 9.35355L15.2308 6.17157C15.4261 5.97631 15.4261 5.65973 15.2308 5.46447C15.0356 5.2692 14.719 5.2692 14.5237 5.46447L11.6953 8.29289L8.86689 5.46447C8.67162 5.2692 8.35504 5.2692 8.15978 5.46447C7.96452 5.65973 7.96452 5.97631 8.15978 6.17157L11.3418 9.35355ZM11.1953 2.18558e-08L11.1953 9L12.1953 9L12.1953 -2.18558e-08L11.1953 2.18558e-08Z" fill="#C9CCD7"/>
</svg>
