<svg width="34" height="40" viewBox="0 0 34 40" fill="none" xmlns="http://www.w3.org/2000/svg">
<path d="M15.197 29.6611C19.3424 28.2793 25.5606 27.5884 27.6334 28.2793C29.7061 28.9702 28.3254 31.7339 24.8708 30.3521C21.4163 28.9702 20.0334 27.5884 17.9606 22.752C15.8879 17.9157 19.1697 15.8429 20.0334 19.2975C20.4527 20.9748 20.0344 24.1339 17.2697 28.2793C14.9142 31.8112 13.5151 33.2647 12.4334 33.8066C11.0543 34.4975 9.67142 33.1172 11.0517 31.7339C11.741 31.043 13.8025 30.0802 15.197 29.6611Z" stroke="#033A9F" stroke-width="0.5"/>
<path d="M33.1666 37V8.04661C33.1666 7.51618 32.9559 7.00747 32.5808 6.63239L27.5342 1.58579C27.1592 1.21071 26.6504 1 26.12 1H6.14844C5.04387 1 4.14844 1.89543 4.14844 3V37C4.14844 38.1046 5.04387 39 6.14844 39H31.1666C32.2712 39 33.1666 38.1046 33.1666 37Z" stroke="#033A9F"/>
<rect y="6.52734" width="20.7273" height="9.67273" rx="1" fill="#033A9F"/>
<path d="M10.3662 9.29102H8.98438V13.4365H10.3662C11.748 13.4365 11.748 12.0547 11.748 11.3637C11.748 10.6728 11.748 9.29102 10.3662 9.29102Z" stroke="white" stroke-width="0.5"/>
<path d="M4.14744 9.29102H2.76562V12.0547H4.14744C5.52926 12.0547 5.52926 11.1334 5.52926 10.6728C5.52926 10.2122 5.52926 9.29102 4.14744 9.29102Z" stroke="white" stroke-width="0.5"/>
<path d="M2.76562 14.1274V12.0547" stroke="white" stroke-width="0.5"/>
<path d="M17.9668 9.29102H15.2031V14.1274" stroke="white" stroke-width="0.5"/>
<path d="M17.2759 11.3633H15.2031" stroke="white" stroke-width="0.5"/>
</svg>
