<svg width="30" height="30" viewBox="0 0 30 30" fill="none" xmlns="http://www.w3.org/2000/svg">
<path d="M11.4451 1.87891H8.62695C8.38426 1.87891 8.1875 2.07566 8.1875 2.31836C8.1875 2.56106 8.38426 2.75781 8.62695 2.75781H11.4451C11.6878 2.75781 11.8846 2.56106 11.8846 2.31836C11.8846 2.07566 11.6879 1.87891 11.4451 1.87891Z" fill="#033A9F"/>
<path d="M6.75234 1.87891H6.74766C6.50496 1.87891 6.31055 2.07566 6.31055 2.31836C6.31055 2.56106 6.50965 2.75781 6.75234 2.75781C6.99504 2.75781 7.1918 2.56106 7.1918 2.31836C7.1918 2.07566 6.99504 1.87891 6.75234 1.87891Z" fill="#033A9F"/>
<path d="M17.081 0H2.99014C1.71185 0 0.671875 1.03998 0.671875 2.3182V14.3023C0.671875 15.1725 1.01072 15.9905 1.62602 16.6058L14.066 29.0458C14.6813 29.6612 15.4994 30 16.3696 30H17.081C18.3593 30 19.3993 28.96 19.3993 27.6818V2.3182C19.3993 1.03998 18.3593 0 17.081 0ZM14.6875 28.4243L2.24752 15.9844C2.15342 15.8903 2.06875 15.7893 1.99275 15.6833C2.29504 15.8279 2.63324 15.9091 2.99014 15.9091H13.3234C14.1171 15.9091 14.7627 16.5548 14.7627 17.3484V27.6817C14.7627 28.0386 14.8439 28.3768 14.9886 28.6791C14.8826 28.6031 14.7817 28.5184 14.6875 28.4243ZM18.5203 27.6817C18.5203 28.4754 17.8746 29.1211 17.081 29.1211C16.2873 29.1211 15.6417 28.4754 15.6417 27.6818V17.3485C15.6417 16.0702 14.6017 15.0303 13.3235 15.0303H2.99014C2.19648 15.0303 1.55084 14.3846 1.55084 13.591V2.3182C1.55084 1.52455 2.19654 0.878906 2.99019 0.878906H17.081C17.8746 0.878906 18.5203 1.52461 18.5203 2.3182V27.6817Z" fill="#033A9F"/>
<line x1="1" y1="4.5" x2="19" y2="4.5" stroke="#033A9F"/>
</svg>
