<svg width="0" height="0" class="hidden">
  <symbol fill="none" xmlns="http://www.w3.org/2000/svg" viewBox="0 0 18 17" id="icon-add-manuscript">
    <path d="M12.704 6.667V.57H3.701L1 3.428V16h11.704v-3.048"></path>
    <path d="M1 3.429h2.881V.38m.541 6.097h4.682M4.422 8.38h4.682m-4.682 1.906h4.682m1.224.416l4.178-7.654 1.871 1.143-4.177 7.654-1.98 1.342.108-2.485zm6.494-5.801c-.292.189-.925.724-1.12 1.359-.244.794-.23 1.116-.424 1.47l-.257.47"></path>
  </symbol>
  <symbol xmlns="http://www.w3.org/2000/svg" viewBox="0 0 30 8" id="icon-arrow-left-long">
    <path d="M.646 3.646a.5.5 0 000 .708l3.182 3.182a.5.5 0 10.708-.708L1.707 4l2.829-2.828a.5.5 0 10-.708-.708L.646 3.646zM1 4.5h29v-1H1v1z"></path>
  </symbol>
  <symbol fill="none" xmlns="http://www.w3.org/2000/svg" viewBox="0 0 18 8" id="icon-arrow-left">
    <path d="M.727 3.78a.5.5 0 000 .706l3.182 3.182a.5.5 0 10.707-.707L1.787 4.133l2.829-2.829a.5.5 0 00-.707-.707L.727 3.78zm.353.853h16.015v-1H1.08v1z" fill="#033A9F"></path>
  </symbol>
  <symbol xmlns="http://www.w3.org/2000/svg" viewBox="0 0 30 8" id="icon-arrow-right-long">
    <path d="M29.354 4.354a.5.5 0 000-.708L26.172.464a.5.5 0 10-.707.708L28.293 4l-2.828 2.828a.5.5 0 10.707.708l3.182-3.182zM0 4.5h29v-1H0v1z"></path>
  </symbol>
  <symbol xmlns="http://www.w3.org/2000/svg" viewBox="0 0 17 8" id="icon-arrow-right">
    <path d="M16.449 4.486a.5.5 0 000-.707L13.267.597a.5.5 0 10-.707.707l2.828 2.829L12.56 6.96a.5.5 0 10.707.707l3.182-3.182zM.08 4.633h16.015v-1H.08v1z"></path>
  </symbol>
  <symbol fill="none" xmlns="http://www.w3.org/2000/svg" viewBox="0 0 23 14" id="icon-download">
    <path d="M1 6v5a2 2 0 002 2h17.39a2 2 0 002-2V6" stroke="#C9CCD7"></path>
    <path d="M11.342 9.354a.5.5 0 00.707 0l3.182-3.182a.5.5 0 10-.707-.708l-2.829 2.829-2.828-2.829a.5.5 0 10-.707.708l3.182 3.182zM11.195 0v9h1V0h-1z" fill="#C9CCD7"></path>
  </symbol>
  <symbol fill="none" xmlns="http://www.w3.org/2000/svg" viewBox="0 0 18 12" id="icon-eye">
    <path d="M9.216 1C4.72 1 2.441 4.65 1 6.238 2.586 7.825 5.065 11 9.216 11 13.368 11 15.56 7.825 17 6.238 15.703 4.651 13.713 1 9.216 1z" stroke="#C9CCD7"></path>
    <circle cx="9" cy="6" r="3" fill="#C9CCD7"></circle>
  </symbol>
  <symbol fill="none" xmlns="http://www.w3.org/2000/svg" viewBox="0 0 17 17" id="icon-lk">
    <circle cx="8.5" cy="8.5" r="8"></circle>
    <rect x="6.5" y="3.5" width="4" height="5" rx="2"></rect>
    <path d="M4 14.952V12.97C4 10.495 5.8 10 7 10h3c1.8 0 3 .99 3 2.971v1.98M6.5 13.5v2m4-2v2" stroke-linecap="round"></path>
  </symbol>
  <symbol fill="none" xmlns="http://www.w3.org/2000/svg" viewBox="0 0 34 40" id="icon-pdf">
    <path d="M15.197 29.661c4.145-1.382 10.364-2.073 12.436-1.382 2.073.691.692 3.455-2.762 2.073-3.455-1.382-4.838-2.764-6.91-7.6-2.073-4.836 1.209-6.91 2.072-3.454.42 1.677.001 4.836-2.763 8.981-2.356 3.532-3.755 4.986-4.837 5.528-1.379.69-2.762-.69-1.381-2.073.689-.691 2.75-1.654 4.145-2.073z" stroke="#033A9F" stroke-width=".5"></path>
    <path d="M33.167 37V8.047a2 2 0 00-.586-1.415l-5.047-5.046A2 2 0 0026.12 1H6.148a2 2 0 00-2 2v34a2 2 0 002 2h25.019a2 2 0 002-2z" stroke="#033A9F"></path>
    <rect y="6.527" width="20.727" height="9.673" rx="1" fill="#033A9F"></rect>
    <path d="M10.366 9.291H8.984v4.146h1.382c1.382 0 1.382-1.382 1.382-2.073 0-.691 0-2.073-1.382-2.073zm-6.219 0H2.766v2.764h1.381c1.382 0 1.382-.922 1.382-1.382 0-.46 0-1.382-1.382-1.382zm-1.381 4.836v-2.072m15.201-2.764h-2.764v4.836m2.073-2.764h-2.073" stroke="#fff" stroke-width=".5"></path>
  </symbol>
  <symbol fill="none" xmlns="http://www.w3.org/2000/svg" viewBox="0 0 30 30" id="icon-phone">
    <path d="M11.445 1.879H8.627a.44.44 0 000 .879h2.818a.44.44 0 100-.88zm-4.693 0h-.004a.437.437 0 00-.437.44.441.441 0 00.88 0 .44.44 0 00-.439-.44z" fill="#033A9F"></path>
    <path d="M17.081 0H2.991A2.32 2.32 0 00.67 2.318v11.984c0 .87.34 1.689.955 2.304l12.44 12.44A3.236 3.236 0 0016.37 30h.711a2.32 2.32 0 002.318-2.318V2.318A2.32 2.32 0 0017.081 0zm-2.393 28.424l-12.44-12.44a2.415 2.415 0 01-.255-.3c.302.144.64.225.997.225h10.333c.794 0 1.44.646 1.44 1.44v10.333c0 .357.08.695.226.997a2.423 2.423 0 01-.302-.255zm3.832-.742c0 .793-.645 1.44-1.439 1.44a1.44 1.44 0 01-1.44-1.44V17.349a2.32 2.32 0 00-2.318-2.319H2.99a1.44 1.44 0 01-1.44-1.439V2.318c0-.793.647-1.44 1.44-1.44h14.091c.794 0 1.44.647 1.44 1.44v25.364z" fill="#033A9F"></path>
    <path stroke="#033A9F" d="M1 4.5h18"></path>
  </symbol>
  <symbol fill="none" xmlns="http://www.w3.org/2000/svg" viewBox="0 0 26 25" id="icon-planet">
    <g clip-path="url(#clip0)">
      <path d="M13.005.004c-5.202 0-9.903 2.98-11.95 7.578l-.163.052.063.181c-2.695 6.393.509 13.676 7.157 16.268 1.553.606 3.213.917 4.889.916 7.178 0 12.998-5.594 12.999-12.496.001-6.902-5.817-12.498-12.995-12.5zm10.194 18.798l-.667-.641v-1.494a.403.403 0 00-.043-.186l-1.69-3.245v-1.568c0-.14-.072-.27-.193-.346l-1.3-.834a.448.448 0 00-.346-.057l-1.592.382-2.673-1.103-.368-2.478 1.02-.98h2.188l.736 1.065a.44.44 0 00.29.18l2.599.416c.07.011.141.006.208-.016l2.394-.767c2.008 3.705 1.793 8.162-.563 11.672zM21.413 4.11l-.705.451-1.964-.377-1.274-.408a.442.442 0 00-.242-.01l-1.61.388-.707-.227.524-1.006H16.9a.447.447 0 00.194-.044l1.499-.72a12.175 12.175 0 012.82 1.953zM8.255 1.767l1.04.667a.443.443 0 00.17.064l2.1.337-.206.589-1.094.351a.43.43 0 00-.234.18L8.787 5.95 6.788 7.102l-2.946.405a.422.422 0 00-.373.412v1.25c0 .11.046.216.127.294l.74.711v.716L2.534 9.734 1.88 7.85c1.244-2.734 3.523-4.91 6.375-6.083zM7.022 15.426l-1.958-.377-.728-1.396v-.98l1.614-1.551.598 1.149c.073.141.223.23.387.23h2.788l1.173 1.881c.079.126.22.202.372.202h1.204l-.303 1.461-1.64 1.577a.41.41 0 00-.128.295v1.041l-1.56 1.125a.411.411 0 00-.173.333v1.505l-.539-.172-.76-1.83v-4.085a.421.421 0 00-.347-.408zM5.72 21.83C1.635 18.883-.093 13.79 1.399 9.095l.36 1.038c.03.088.09.164.17.215l2.16 1.385-.493.474a.409.409 0 00-.127.294v1.25c0 .065.016.128.046.186l.866 1.667c.06.115.172.197.304.222l1.82.35V20c0 .053.01.105.03.154l.867 2.083a.427.427 0 00.265.24l1.3.417a.44.44 0 00.135.022.426.426 0 00.433-.417v-1.874l1.56-1.125a.411.411 0 00.173-.333v-1.078l1.606-1.544a.411.411 0 00.118-.213l.433-2.083a.417.417 0 00-.34-.49.445.445 0 00-.084-.008h-1.488l-1.174-1.88a.437.437 0 00-.37-.203H7.202l-.744-1.436a.432.432 0 00-.319-.225.435.435 0 00-.375.117l-.563.538v-.66a.409.409 0 00-.127-.295l-.74-.71V8.28l2.662-.365a.447.447 0 00.161-.056l2.167-1.25a.425.425 0 00.148-.142l1.217-1.95 1.148-.369a.42.42 0 00.274-.263l.433-1.25a.413.413 0 00-.34-.542l-2.507-.402-.44-.282a12.55 12.55 0 018.331.298l-.791.38h-1.631a.435.435 0 00-.39.23l-.866 1.666a.41.41 0 00.25.582l1.3.416a.442.442 0 00.242.01l1.61-.388 1.18.378a.33.33 0 00.053.014l2.166.416c.113.022.23 0 .325-.062l.986-.632c.486.52.922 1.08 1.304 1.674l-2.132.684-2.308-.37-.762-1.1a.438.438 0 00-.359-.186h-2.599a.442.442 0 00-.306.123l-1.3 1.25a.407.407 0 00-.123.353l.434 2.916a.42.42 0 00.26.324l3.032 1.25a.444.444 0 00.276.02l1.547-.371.946.607v1.444a.403.403 0 00.043.186l1.69 3.244v1.568c0 .11.045.217.127.295l.906.872c-4.02 5.151-11.622 6.195-16.98 2.33z" fill="#033A9F"></path>
    </g>
    <defs>
      <clipPath id="clip0">
        <path fill="#fff" d="M0 0h26v25H0z"></path>
      </clipPath>
    </defs>
  </symbol>
  <symbol fill="none" xmlns="http://www.w3.org/2000/svg" viewBox="0 0 17 17" id="icon-search">
    <circle cx="7.777" cy="7.778" r="5" transform="rotate(45 7.777 7.778)" stroke="#033A9F"></circle>
    <path stroke="#033A9F" d="M10.959 10.96l2.121 2.121"></path>
  </symbol>
  <symbol fill="none" xmlns="http://www.w3.org/2000/svg" viewBox="0 0 32 32" id="icon-unlocked">
    <path d="M17.103 11.76V5.638c0-3.11-2.722-5.639-6.069-5.639-3.346 0-6.068 2.53-6.068 5.639a.551.551 0 101.103 0c0-2.5 2.227-4.536 4.965-4.536C13.773 1.103 16 3.138 16 5.64v5.483c-.104-.053-.21-.1-.315-.148a11.116 11.116 0 00-1.095-.444c-.143-.049-.285-.098-.431-.141a11.049 11.049 0 00-1.052-.255 11.07 11.07 0 00-.87-.134l-.2-.018a10.686 10.686 0 00-1.003-.051C4.95 9.931 0 14.881 0 20.965 0 27.05 4.95 32 11.034 32c6.085 0 11.035-4.95 11.035-11.035 0-3.843-1.977-7.23-4.966-9.206zm-6.069 19.137c-5.475 0-9.93-4.456-9.93-9.931 0-5.476 4.455-9.932 9.93-9.932a9.93 9.93 0 011.166.075 9.747 9.747 0 011.04.18c.191.044.381.093.57.147a9.52 9.52 0 01.747.256c.546.21 1.077.467 1.585.773 2.884 1.74 4.823 4.894 4.823 8.5 0 5.476-4.455 9.932-9.93 9.932z" fill="#033A9F"></path>
    <path d="M17.654 20.414h-1.687a4.941 4.941 0 00-1.057-2.544l1.195-1.196a.551.551 0 10-.78-.78L14.13 17.09a4.942 4.942 0 00-2.545-1.058v-1.687a.551.551 0 10-1.103 0v1.687a4.941 4.941 0 00-2.544 1.058l-1.196-1.196a.551.551 0 10-.78.78l1.196 1.196A4.94 4.94 0 006.1 20.414H4.413a.551.551 0 100 1.103h1.688c.106.956.485 1.83 1.057 2.544l-1.196 1.196a.551.551 0 10.78.78l1.196-1.196a4.94 4.94 0 002.544 1.057v1.688a.551.551 0 101.104 0v-1.688a4.94 4.94 0 002.543-1.057l1.196 1.196a.55.55 0 00.78 0 .551.551 0 000-.78L14.91 24.06a4.942 4.942 0 001.057-2.544h1.687a.551.551 0 100-1.103zm-6.62 4.413a3.867 3.867 0 01-3.862-3.862 3.867 3.867 0 013.862-3.862 3.867 3.867 0 013.862 3.862 3.867 3.867 0 01-3.862 3.862z" fill="#033A9F"></path>
  </symbol>
  <symbol xmlns="http://www.w3.org/2000/svg" viewBox="0 0 7 3" id="icon-dropdown">
    <path d="M3.5 3L.469 0H6.53L3.5 3z"></path>
  </symbol>
  <symbol fill="none" xmlns="http://www.w3.org/2000/svg" viewBox="0 0 32 23" id="icon-burger">
    <path stroke="#033A9F" stroke-width="2" d="M.5 1H32M12.75 11.5H32M21.5 22H32"></path>
  </symbol>
  <symbol fill="none" xmlns="http://www.w3.org/2000/svg" viewBox="0 0 25 24" id="icon-close">
    <path fill-rule="evenodd" clip-rule="evenodd" d="M24.314 1.6L3.101 22.814l-.94-.94L23.374.66l.94.94z" fill="#fff"></path>
    <path fill-rule="evenodd" clip-rule="evenodd" d="M22.9 23.52L.98 1.6l.94-.94 21.92 21.921-.94.94z" fill="#fff"></path>
  </symbol>
  <symbol fill="none" xmlns="http://www.w3.org/2000/svg" viewBox="0 0 19 21" id="icon-search-2">
    <path fill-rule="evenodd" clip-rule="evenodd" d="M4.01 14.66c2.49 2.743 6.527 2.743 9.017 0 2.49-2.744 2.49-7.193 0-9.937-2.49-2.743-6.528-2.743-9.018 0-2.49 2.744-2.49 7.193 0 9.937zm-1.251 1.377c3.18 3.505 8.337 3.505 11.518 0 3.18-3.504 3.18-9.187 0-12.691-3.18-3.505-8.337-3.505-11.518 0-3.18 3.504-3.18 9.187 0 12.691z" fill="#033A9F"></path>
    <path fill-rule="evenodd" clip-rule="evenodd" d="M17.376 20.605l-3.623-3.991 1.25-1.378 3.623 3.991-1.25 1.378z" fill="#033A9F"></path>
  </symbol>
  <symbol fill="none" xmlns="http://www.w3.org/2000/svg" viewBox="0 0 10 7" id="icon-arrow-down">
    <path d="M1 1l4 4 2-2 2-2" stroke="#033A9F" stroke-width="2"></path>
  </symbol>
  <symbol xmlns="http://www.w3.org/2000/svg" viewBox="0 0 24 24" id="icon-facebook">
    <rect width="24" height="24" rx="12"></rect>
    <path d="M12.801 20v-7.3h2.45l.367-2.844H12.8V8.041c0-.823.229-1.384 1.41-1.384l1.506-.001V4.112A20.19 20.19 0 0013.522 4c-2.171 0-3.658 1.325-3.658 3.76v2.097H7.408v2.845h2.456V20h2.937z" fill="#fff"></path>
  </symbol>
</svg>
