<svg width="26" height="25" viewBox="0 0 26 25" fill="none" xmlns="http://www.w3.org/2000/svg">
<g clip-path="url(#clip0)">
<path d="M13.0046 0.00390638C7.80298 0.00317737 3.10186 2.98448 1.05451 7.58233L0.89248 7.63398L0.9553 7.81519C-1.74034 14.2079 1.46398 21.4915 8.11242 24.0834C9.66522 24.6888 11.3251 24.9996 13.0008 24.9987C20.1789 24.9997 25.9989 19.4053 26 12.5032C26.0011 5.60107 20.1828 0.00489576 13.0046 0.00390638ZM23.1995 18.8023L22.5321 18.161V16.6671C22.5329 16.6026 22.518 16.5389 22.4888 16.4809L20.7991 13.2361V11.6681C20.7991 11.5289 20.7268 11.3988 20.6063 11.3215L19.3066 10.4884C19.2047 10.423 19.0788 10.4021 18.96 10.4309L17.3683 10.8133L14.6947 9.71021L14.3269 7.2324L15.3463 6.2526H17.5346L18.2712 7.31696C18.3377 7.41267 18.4425 7.47771 18.5606 7.49651L21.16 7.91309C21.2297 7.92434 21.301 7.91887 21.368 7.89726L23.7621 7.12992C25.7701 10.8351 25.5553 15.2916 23.1995 18.8023ZM21.4126 4.10888L20.7082 4.56046L18.7443 4.18262L17.4701 3.77479C17.3921 3.74932 17.3082 3.74609 17.2283 3.76562L15.6175 4.15262L14.9114 3.92642L15.4347 2.91996H16.8999C16.9672 2.92002 17.0334 2.90507 17.0936 2.87622L18.5926 2.15554C19.6249 2.67366 20.5746 3.33144 21.4126 4.10888ZM8.25545 1.76729L9.29523 2.43382C9.34635 2.46652 9.40408 2.48839 9.46463 2.49797L11.5641 2.83457L11.3592 3.42403L10.2653 3.7752C10.1673 3.80655 10.0842 3.8705 10.0309 3.95558L8.7866 5.94933L6.78805 7.10243L3.842 7.50692C3.62846 7.53593 3.46968 7.71157 3.46941 7.91892V9.16866C3.46941 9.27916 3.51512 9.38507 3.59635 9.46318L4.3359 10.1743V10.89L2.53361 9.73438L1.87984 7.84852C3.12368 5.11576 5.40346 2.94121 8.25545 1.76729ZM7.022 15.4257L5.06375 15.0487L4.3359 13.6527V12.6738L5.95016 11.1216L6.5476 12.2709C6.62098 12.4122 6.77116 12.5014 6.93536 12.5013H9.72284L10.8965 14.3822C10.9748 14.5075 11.1157 14.5841 11.2678 14.5842H12.4722L12.1689 16.0451L10.5287 17.6223C10.4473 17.7004 10.4015 17.8063 10.4013 17.9168V18.9583L8.84163 20.0831C8.73256 20.1617 8.66833 20.2852 8.66833 20.4163V21.921L8.12937 21.7494L7.3686 19.9198V15.8339C7.36865 15.636 7.22373 15.4653 7.022 15.4257ZM5.71968 21.8296C1.63479 18.8829 -0.0927149 13.7914 1.39894 9.09534L1.75897 10.1335C1.78929 10.2213 1.84919 10.297 1.92923 10.3484L4.08895 11.7327L3.59635 12.2068C3.51512 12.2849 3.46941 12.3908 3.46941 12.5013V13.751C3.46936 13.8157 3.4849 13.8794 3.5149 13.9373L4.38139 15.6036C4.44139 15.7187 4.55333 15.8006 4.68466 15.8256L6.50428 16.1751V19.9997C6.50422 20.0526 6.51468 20.1051 6.53504 20.1543L7.40153 22.2372C7.44897 22.351 7.54612 22.4389 7.6671 22.4776L8.96683 22.8941C9.01027 22.9083 9.05576 22.9156 9.10157 22.9158C9.34083 22.9158 9.53481 22.7293 9.53481 22.4992V20.6246L11.0945 19.4998C11.2036 19.4212 11.2678 19.2977 11.2678 19.1666V18.0893L12.8738 16.545C12.9342 16.4869 12.9754 16.4128 12.9921 16.3322L13.4253 14.2493C13.4722 14.0236 13.3201 13.8042 13.0854 13.7591C13.0575 13.7537 13.0292 13.751 13.0008 13.751H11.513L10.3393 11.8702C10.261 11.7448 10.1201 11.6682 9.96806 11.6681H7.2031L6.45879 10.2322C6.39646 10.1123 6.27796 10.0286 6.14035 10.0072C6.0028 9.98438 5.86237 10.028 5.76473 10.1239L5.20238 10.6625V10.0018C5.20238 9.89132 5.15668 9.78541 5.07544 9.7073L4.3359 8.9962V8.2801L6.99688 7.91476C7.05401 7.90679 7.10898 7.88794 7.15848 7.85935L9.32469 6.60961C9.38545 6.57452 9.43636 6.52557 9.47286 6.46714L10.6903 4.5163L11.8379 4.14804C11.9675 4.10717 12.0692 4.00943 12.1117 3.88476L12.545 2.63502C12.62 2.41658 12.4967 2.18095 12.2696 2.10878C12.2486 2.10211 12.2271 2.09701 12.2053 2.09347L9.69771 1.69147L9.25711 1.40903C11.9835 0.555771 14.9363 0.661373 17.5892 1.70688L16.7977 2.08681H15.167C15.002 2.08592 14.8508 2.17528 14.7771 2.31717L13.9106 3.98349C13.8038 4.18939 13.8909 4.43954 14.105 4.54218C14.1232 4.55093 14.1421 4.55843 14.1614 4.56462L15.4611 4.9812C15.5391 5.00667 15.6231 5.00989 15.7029 4.99037L17.3137 4.60336L18.4938 4.9812C18.5107 4.98703 18.5281 4.99151 18.5458 4.99453L20.7121 5.41111C20.8247 5.43319 20.9419 5.41101 21.0374 5.34946L22.0235 4.71709C22.5088 5.23683 22.9449 5.79713 23.3267 6.39132L21.1951 7.07451L18.8872 6.70459L18.1247 5.60482C18.0448 5.48959 17.9105 5.42012 17.7664 5.41944H15.167C15.0521 5.41944 14.9419 5.46339 14.8607 5.5415L13.5609 6.79124C13.4644 6.88398 13.419 7.01505 13.4383 7.14492L13.8716 10.061C13.8934 10.2052 13.992 10.3279 14.1315 10.3847L17.1642 11.6344C17.2511 11.6706 17.348 11.678 17.4398 11.6556L18.9869 11.2836L19.9326 11.891V13.3345C19.9319 13.3989 19.9467 13.4627 19.976 13.5207L21.6656 16.7654V18.3334C21.6656 18.4439 21.7113 18.5498 21.7926 18.6279L22.6989 19.4998C18.6793 24.6515 11.0774 25.6946 5.71968 21.8296Z" fill="#033A9F"/>
</g>
<defs>
<clipPath id="clip0">
<rect width="26" height="25" fill="white"/>
</clipPath>
</defs>
</svg>
