<svg width="32" height="32" viewBox="0 0 32 32" fill="none" xmlns="http://www.w3.org/2000/svg">
<path d="M17.1034 11.7594V5.63862C17.1034 2.52966 14.3807 0 11.0345 0C7.68828 0 4.96552 2.52966 4.96552 5.63862C4.96552 5.94372 5.21214 6.19034 5.51724 6.19034C5.82234 6.19034 6.06897 5.94372 6.06897 5.63862C6.06897 3.13821 8.29628 1.10345 11.0345 1.10345C13.7727 1.10345 16 3.13821 16 5.63862V11.1217C15.8963 11.0692 15.7903 11.0229 15.6855 10.9738C15.4687 10.8723 15.2486 10.7774 15.0246 10.6897C14.8806 10.6334 14.736 10.5804 14.5903 10.5302C14.4469 10.4811 14.3046 10.432 14.1589 10.389C13.9178 10.3172 13.6739 10.256 13.4284 10.2008C13.3219 10.1771 13.2149 10.1545 13.1073 10.1335C12.8188 10.0778 12.5286 10.0326 12.2361 10C12.1699 9.99283 12.1037 9.98841 12.0375 9.98234C11.7037 9.9509 11.3699 9.93103 11.0345 9.93103C4.95007 9.93103 0 14.8811 0 20.9655C0 27.0499 4.95007 32 11.0345 32C17.1189 32 22.069 27.0499 22.069 20.9655C22.069 17.1222 20.0916 13.7357 17.1034 11.7594ZM11.0345 30.8966C5.55862 30.8966 1.10345 26.4414 1.10345 20.9655C1.10345 15.4897 5.55862 11.0345 11.0345 11.0345C11.3324 11.0345 11.6259 11.0532 11.9178 11.0792C12.0121 11.088 12.1059 11.0979 12.2003 11.109C12.4083 11.1332 12.6135 11.1663 12.8171 11.2033C12.9583 11.2292 13.099 11.2574 13.2392 11.2894C13.4312 11.333 13.6215 11.3815 13.8091 11.4361C13.9619 11.4808 14.1131 11.5316 14.2637 11.584C14.3625 11.6182 14.4596 11.6546 14.5567 11.6916C15.1034 11.9012 15.6342 12.1589 16.1418 12.4646C19.0262 14.2041 20.9655 17.3589 20.9655 20.9655C20.9655 26.4414 16.5103 30.8966 11.0345 30.8966Z" fill="#033A9F"/>
<path d="M17.6544 20.4137H15.9667C15.8602 19.4575 15.4812 18.5841 14.9096 17.8697L16.1052 16.6741C16.3209 16.4583 16.3209 16.1097 16.1052 15.8939C15.8895 15.6782 15.5408 15.6782 15.3251 15.8939L14.1295 17.0895C13.415 16.5179 12.5416 16.1389 11.5855 16.0324V14.3447C11.5855 14.0396 11.3388 13.793 11.0337 13.793C10.7286 13.793 10.482 14.0396 10.482 14.3447V16.0324C9.52588 16.1389 8.6525 16.5179 7.93802 17.0895L6.74243 15.8939C6.52671 15.6782 6.17802 15.6782 5.96229 15.8939C5.74657 16.1097 5.74657 16.4583 5.96229 16.6741L7.15788 17.8697C6.58629 18.5841 6.20726 19.4575 6.10078 20.4137H4.41305C4.10795 20.4137 3.86133 20.6603 3.86133 20.9654C3.86133 21.2705 4.10795 21.5171 4.41305 21.5171H6.10078C6.20726 22.4732 6.58629 23.3466 7.15788 24.0611L5.96229 25.2567C5.74657 25.4724 5.74657 25.8211 5.96229 26.0368C6.06988 26.1444 6.21112 26.1985 6.35236 26.1985C6.4936 26.1985 6.63485 26.1444 6.74243 26.0368L7.93802 24.8412C8.6525 25.4128 9.52588 25.7919 10.482 25.8983V27.5861C10.482 27.8912 10.7286 28.1378 11.0337 28.1378C11.3388 28.1378 11.5855 27.8912 11.5855 27.5861V25.8983C12.5416 25.7919 13.415 25.4128 14.1295 24.8412L15.3251 26.0368C15.4326 26.1444 15.5739 26.1985 15.7151 26.1985C15.8564 26.1985 15.9976 26.1444 16.1052 26.0368C16.3209 25.8211 16.3209 25.4724 16.1052 25.2567L14.9096 24.0611C15.4812 23.3466 15.8602 22.4732 15.9667 21.5171H17.6544C17.9595 21.5171 18.2062 21.2705 18.2062 20.9654C18.2062 20.6603 17.9595 20.4137 17.6544 20.4137ZM11.0337 24.8274C8.90464 24.8274 7.17167 23.0945 7.17167 20.9654C7.17167 18.8363 8.90464 17.1033 11.0337 17.1033C13.1628 17.1033 14.8958 18.8363 14.8958 20.9654C14.8958 23.0945 13.1628 24.8274 11.0337 24.8274Z" fill="#033A9F"/>
</svg>
