<svg width="19" height="21" viewBox="0 0 19 21" fill="none" xmlns="http://www.w3.org/2000/svg">
<path fill-rule="evenodd" clip-rule="evenodd" d="M4.0092 14.6596C6.49932 17.4034 10.5366 17.4034 13.0267 14.6596C15.5168 11.9158 15.5168 7.46716 13.0267 4.72335C10.5366 1.97953 6.49932 1.97953 4.0092 4.72335C1.51908 7.46716 1.51908 11.9158 4.0092 14.6596ZM2.75898 16.0372C5.93958 19.5418 11.0963 19.5418 14.2769 16.0372C17.4575 12.5326 17.4575 6.8504 14.2769 3.34576C11.0963 -0.158873 5.93958 -0.158873 2.75898 3.34576C-0.421612 6.8504 -0.421612 12.5326 2.75898 16.0372Z" fill="#033A9F"/>
<path fill-rule="evenodd" clip-rule="evenodd" d="M17.3756 20.605L13.7534 16.6139L15.0036 15.2363L18.6258 19.2274L17.3756 20.605Z" fill="#033A9F"/>
</svg>
