<svg width="95" height="39" viewBox="0 0 95 39" fill="none" xmlns="http://www.w3.org/2000/svg">
<path d="M34.6855 11.9264V13.0936H38.1079V11.9264C38.1079 9.1012 40.4065 6.80286 43.2314 6.80286C46.0562 6.80286 48.3547 9.1012 48.3547 11.9264V20.3689H51.7772V11.9264C51.7772 7.21426 47.9434 3.38048 43.2314 3.38048C38.5196 3.38048 34.6855 7.21426 34.6855 11.9264ZM46.0684 25.2961C46.0684 26.8551 44.8043 28.1191 43.2449 28.1191C41.6856 28.1191 40.4216 26.8551 40.4216 25.2961C40.4216 23.7361 41.6856 22.4719 43.2449 22.4719C44.8043 22.4719 46.0684 23.7361 46.0684 25.2961Z" fill="#F68212"/>
<path d="M36.5566 25.2653C36.5566 21.5958 39.5421 18.6105 43.2116 18.6105C46.8809 18.6105 49.866 21.5958 49.866 25.2653C49.866 28.9345 46.8809 31.9203 43.2116 31.9203C39.5421 31.9202 36.5566 28.9344 36.5566 25.2653ZM33.1342 25.2653C33.1342 30.8213 37.6553 35.3423 43.2115 35.3423C48.7678 35.3423 53.2885 30.8212 53.2885 25.2653C53.2885 19.7087 48.7678 15.188 43.2115 15.188C37.6553 15.188 33.1342 19.7087 33.1342 25.2653ZM6.82609 24.3344C7.87478 24.3344 8.47526 23.3468 8.47526 22.0034C8.47526 20.7711 7.89523 19.7117 6.82609 19.7117C5.75694 19.7117 5.15607 20.7501 5.15607 22.0334C5.15607 23.3269 5.77726 24.3344 6.81606 24.3344H6.82609ZM6.75484 25.5669C4.7287 25.5669 3.52734 24.0294 3.52734 22.0745C3.52734 20.0169 4.85075 18.4803 6.86686 18.4803C8.97427 18.4803 10.1247 20.0578 10.1247 21.9518C10.1247 24.2126 8.77042 25.5668 6.76473 25.5668H6.75484V25.5669ZM13.0419 21.7988C13.1739 21.8301 13.337 21.8397 13.5604 21.8397C14.3856 21.8397 14.8944 21.4223 14.8944 20.7302C14.8944 20.099 14.4667 19.7223 13.683 19.7223C13.3675 19.7223 13.1535 19.7425 13.0419 19.7728V21.7988ZM11.5043 18.6839C11.9826 18.6024 12.6549 18.5415 13.6018 18.5415C14.5584 18.5415 15.251 18.724 15.7091 19.1014C16.1472 19.4369 16.4322 20.0076 16.4322 20.6796C16.4322 21.3614 16.2183 21.9317 15.811 22.3084C15.2814 22.797 14.4874 23.0312 13.571 23.0312C13.3676 23.0312 13.1841 23.0212 13.042 22.99V25.4548H11.5043V18.6839ZM21.8637 22.5528H19.3384V24.1814H22.159V25.4548H17.7912V18.5919H22.0165V19.8648H19.3385V21.2902H21.8638V22.5528H21.8637ZM23.9816 25.4548V18.5919H25.7938L27.219 21.1067C27.6269 21.8301 28.0235 22.6849 28.3391 23.4588H28.3598C28.2682 22.5528 28.2372 21.6264 28.2372 20.5875V18.5919H29.6629V25.4548H28.0339L26.5677 22.8074C26.1603 22.0638 25.7022 21.1885 25.3764 20.3841H25.3356C25.3863 21.3004 25.4069 22.2674 25.4069 23.3875V25.4548H23.9816ZM59.4257 22.5327L58.9984 21.0764C58.8865 20.6694 58.7638 20.1503 58.6622 19.7528H58.6322C58.5401 20.1598 58.428 20.6789 58.3262 21.0764L57.9093 22.5327H59.4257ZM57.6846 23.6926L57.2066 25.4548H55.5974L57.6948 18.5919H59.7216L61.8589 25.4548H60.1894L59.6598 23.6926H57.6846ZM67.7116 25.2711C67.4367 25.4034 66.7853 25.5669 65.9604 25.5669C63.5881 25.5669 62.3661 24.0796 62.3661 22.1154C62.3661 19.7727 64.0363 18.4798 66.1129 18.4798C66.9178 18.4798 67.5283 18.6431 67.8033 18.7858L67.4779 20.0076C67.1719 19.8754 66.7349 19.7527 66.1743 19.7527C64.9524 19.7527 63.9951 20.4962 63.9951 22.0334C63.9951 23.4075 64.8099 24.2736 66.1847 24.2736C66.6624 24.2736 67.1718 24.1814 67.4877 24.0493L67.7116 25.2711ZM73.8178 25.2711C73.5427 25.4034 72.8916 25.5669 72.066 25.5669C69.6941 25.5669 68.4721 24.0796 68.4721 22.1154C68.4721 19.7727 70.1423 18.4798 72.2191 18.4798C73.0235 18.4798 73.6342 18.6431 73.9091 18.7858L73.5834 20.0076C73.2782 19.8754 72.8397 19.7527 72.2798 19.7527C71.0581 19.7527 70.1011 20.4962 70.1011 22.0334C70.1011 23.4075 70.9159 24.2736 72.2901 24.2736C72.769 24.2736 73.2782 24.1814 73.5934 24.0493L73.8178 25.2711ZM79.692 22.5528H77.167V24.1814H79.9876V25.4548H75.6195V18.5919H79.8453V19.8648H77.167V21.2902H79.692V22.5528ZM81.861 23.8658C82.2681 24.0798 82.9198 24.2938 83.5817 24.2938C84.294 24.2938 84.6713 23.9988 84.6713 23.5406C84.6713 23.1234 84.3457 22.8685 83.5206 22.5834C82.3804 22.1763 81.6266 21.545 81.6266 20.5371C81.6266 19.3659 82.6146 18.4799 84.2232 18.4799C85.0071 18.4799 85.567 18.633 85.9745 18.8259L85.6282 20.0685C85.3638 19.9363 84.8642 19.7426 84.2035 19.7426C83.5305 19.7426 83.2052 20.0581 83.2052 20.4045C83.2052 20.8424 83.5819 21.0355 84.4779 21.3815C85.6894 21.8302 86.2498 22.4607 86.2498 23.4384C86.2498 24.5896 85.3742 25.5672 83.4903 25.5672C82.7064 25.5672 81.9322 25.3532 81.5456 25.1392L81.861 23.8658ZM87.7203 23.8658C88.1277 24.0798 88.7789 24.2938 89.4406 24.2938C90.1536 24.2938 90.5305 23.9988 90.5305 23.5406C90.5305 23.1234 90.2044 22.8685 89.3794 22.5834C88.2396 22.1763 87.4862 21.545 87.4862 20.5371C87.4862 19.3659 88.4732 18.4799 90.082 18.4799C90.8663 18.4799 91.4262 18.633 91.8335 18.8259L91.4874 20.0685C91.2229 19.9363 90.724 19.7426 90.062 19.7426C89.3899 19.7426 89.0643 20.0581 89.0643 20.4045C89.0643 20.8424 89.4406 21.0355 90.3369 21.3815C91.5483 21.8302 92.1084 22.4607 92.1084 23.4384C92.1084 24.5896 91.2327 25.5672 89.349 25.5672C88.5655 25.5672 87.7914 25.3532 87.405 25.1392L87.7203 23.8658Z" fill="#F68212"/>
</svg>
