<svg width="109" height="23" viewBox="0 0 109 23" fill="none" xmlns="http://www.w3.org/2000/svg">
<path d="M7.44346 5.68104C6.34883 6.77568 4.94913 7.49347 3.42383 7.7447C3.67506 8.40865 4.01601 9.05468 4.44668 9.61096C6.18732 9.18029 7.78441 8.26509 9.0226 6.97307C8.73548 6.30911 8.35864 5.69899 7.91002 5.16064C7.76647 5.34009 7.60496 5.51954 7.44346 5.68104Z" fill="#16AB03"/>
<path d="M3.42433 7.7448C2.81421 6.07594 2.83216 4.24557 3.44228 2.57671C2.74243 2.4511 2.02464 2.43315 1.30685 2.52287C0.804395 4.24557 0.804394 6.07594 1.2889 7.79864C2.00669 7.88836 2.72449 7.87041 3.42433 7.7448Z" fill="black"/>
<path d="M4.4822 0.710449C4.05153 1.28468 3.69263 1.91275 3.44141 2.5767C4.94877 2.82793 6.34846 3.56367 7.44309 4.64035C7.6046 4.80185 7.7661 4.9813 7.90966 5.16075C8.35828 4.60446 8.73512 3.99434 9.02224 3.34833C7.78405 2.05631 6.2049 1.14112 4.4822 0.710449Z" fill="#5E33BF"/>
<path d="M15.0714 7.56497C15.9507 7.61881 16.7582 7.04457 17.0094 6.20117H18.5706C18.1758 7.79825 16.7223 8.91083 15.0714 8.857C13.0795 8.91083 11.4106 7.34964 11.3568 5.35776C11.3568 5.28599 11.3568 5.23215 11.3568 5.16037C11.303 3.1685 12.8821 1.51758 14.874 1.46375C14.9458 1.46375 14.9996 1.46375 15.0714 1.46375C16.7223 1.42786 18.1758 2.52249 18.5706 4.11958H17.0094C16.7582 3.27617 15.9507 2.71988 15.0714 2.75577C13.8511 2.73783 12.8283 3.72479 12.8283 4.96298C12.8283 5.01681 12.8283 5.08859 12.8283 5.14243C12.7386 6.36267 13.6537 7.43936 14.8919 7.52908C14.9458 7.56497 15.0175 7.56497 15.0714 7.56497ZM20.6163 8.74933H19.3063V1.60731H20.6163V8.74933ZM24.2771 5.62694C24.2771 5.28599 24.0079 5.07065 23.5054 5.07065C23.003 5.10654 22.5185 5.2501 22.1057 5.50132L21.5853 4.49641C22.1955 4.13752 22.8774 3.94013 23.5772 3.92218C24.6359 3.92218 25.605 4.40669 25.605 5.64488V8.71344H24.2771V8.28277C23.954 8.65961 23.4695 8.87494 22.9671 8.83905C22.1237 8.89289 21.3879 8.26482 21.3341 7.42141C21.3341 7.40347 21.3341 7.38553 21.3341 7.38553C21.3341 6.50623 21.9801 5.94994 23.0209 5.94994H23.9361C24.1694 5.94994 24.2591 5.84227 24.2591 5.68077L24.2771 5.62694ZM24.2771 7.08047V6.73951C24.1514 6.82924 24.0079 6.86513 23.8643 6.84718H23.3619C22.9491 6.84718 22.6979 7.02663 22.6979 7.34964C22.6979 7.67264 22.9491 7.90592 23.3619 7.90592C23.8105 7.95976 24.2053 7.6547 24.2591 7.20608C24.2771 7.15224 24.2771 7.11635 24.2771 7.08047ZM29.2478 5.37571H28.6915C28.0096 5.37571 27.7045 5.69872 27.7045 6.50623V8.73138H26.3766V4.06574H27.6686V4.80148C27.8481 4.29902 28.3505 3.97602 28.8889 3.99396C29.0145 3.99396 29.1401 4.01191 29.2478 4.02985V5.37571ZM31.8498 8.74933H30.5218V5.19626H29.8758V4.06574H31.8498V8.74933ZM31.132 1.60731C31.5985 1.60731 31.9933 1.98415 31.9933 2.46866C31.9933 2.93522 31.5985 3.31206 31.132 3.31206C30.6654 3.31206 30.2886 2.93522 30.2886 2.46866C30.2706 2.00209 30.6654 1.60731 31.132 1.60731ZM34.8286 7.31375L35.8873 4.06574H37.287L35.6182 8.73138H33.9852L32.3881 4.06574H33.8237L34.8286 7.31375ZM40.2838 5.62694C40.2838 5.28599 40.0146 5.07065 39.5122 5.07065C39.0097 5.10654 38.5252 5.2501 38.1125 5.50132L37.5921 4.49641C38.2022 4.13752 38.8841 3.94013 39.584 3.92218C40.6427 3.92218 41.6117 4.40669 41.6117 5.64488V8.71344H40.2838V8.28277C39.9608 8.65961 39.4763 8.87494 38.9738 8.83905C38.1304 8.89289 37.3947 8.26482 37.3409 7.42141C37.3409 7.40347 37.3409 7.38553 37.3409 7.38553C37.3409 6.50623 37.9869 5.94994 39.0277 5.94994H39.9429C40.1761 5.94994 40.2659 5.84227 40.2659 5.68077L40.2838 5.62694ZM40.2838 7.08047V6.73951C40.1582 6.82924 40.0146 6.86513 39.8711 6.84718H39.3686C38.9559 6.84718 38.7047 7.02663 38.7047 7.34964C38.7047 7.67264 38.9559 7.90592 39.3686 7.90592C39.8172 7.95976 40.212 7.6547 40.2659 7.20608C40.2838 7.15224 40.2838 7.11635 40.2838 7.08047ZM44.1778 2.30715V4.08369H45.1827V5.21421H44.1778V7.33169C44.1778 7.61881 44.4111 7.67264 44.6085 7.67264C44.9494 7.67264 45.2186 7.63675 45.2186 7.63675V8.76728C45.2186 8.76728 44.5726 8.82111 44.1958 8.82111C43.5318 8.82111 42.8499 8.71344 42.8499 7.76237V5.19626H42.1142V4.06574H42.8499V2.28921H44.1778V2.30715ZM50.4764 6.79335H46.9952C47.0849 7.40347 47.6591 7.8162 48.2692 7.72648C48.5743 7.67264 48.8435 7.51114 49.005 7.25991L50.3867 7.40347C49.8125 8.65961 48.3231 9.21589 47.0669 8.64166C46.1876 8.24688 45.6134 7.36758 45.5955 6.39856C45.5416 5.08859 46.5645 3.99396 47.8744 3.94013C47.9283 3.94013 47.9821 3.94013 48.0359 3.94013C49.328 3.94013 50.4764 4.78353 50.4764 6.73951V6.79335ZM46.9593 5.91405H49.0409C48.9691 5.4116 48.5205 5.03476 48.018 5.0527C47.5155 5.03476 47.049 5.39366 46.9593 5.91405ZM106.392 12.3921H105.89V13.738H105.352V12.3921H104.849V11.9256H106.392V12.3921ZM107.433 13.3432L107.2 12.6972V13.738H106.697V11.9256H107.397L107.666 12.6792L107.954 11.9256H108.618V13.738H108.079V12.6972L107.846 13.3432H107.433ZM19.2525 11.9256L21.2085 19.2291H21.2264L22.8594 11.9256H24.9231L22.4287 22.1182H20.078L18.1579 14.7967L16.2737 22.1182H13.9229L11.4106 11.9256H13.5999L15.179 19.2291H15.197L17.153 11.9256H19.2525ZM31.2396 19.3368H26.2689C26.3945 20.1981 27.22 20.7903 28.0813 20.6647C28.512 20.5929 28.8889 20.3596 29.1401 20.0007L31.114 20.1981C30.3065 21.9926 28.1711 22.8001 26.3766 21.9746C25.1205 21.4004 24.3129 20.1622 24.2771 18.7805C24.2053 16.9142 25.6588 15.353 27.5251 15.2633C27.5968 15.2633 27.6686 15.2633 27.7404 15.2633C29.5708 15.2633 31.2396 16.4656 31.2396 19.247V19.3368ZM26.233 18.0627H29.2119C29.1042 17.3449 28.4761 16.8245 27.7404 16.8424C27.0047 16.8245 26.3586 17.3449 26.233 18.0627ZM33.9672 22.1182H32.0651V11.9256H33.9672V15.2095C33.9672 15.6401 33.9313 16.1067 33.9313 16.3041C34.3979 15.6222 35.2054 15.2274 36.0488 15.2633C37.8792 15.2633 39.2789 16.7348 39.2789 18.7805C39.2789 20.8262 37.8613 22.2976 36.0309 22.2976C35.2054 22.3335 34.4338 21.9567 33.9672 21.2748V22.1182ZM33.9313 18.7805C33.8596 19.7136 34.5594 20.5391 35.5105 20.6108C36.4436 20.6826 37.2691 19.9828 37.3409 19.0317C37.3409 18.942 37.3409 18.8702 37.3409 18.7805C37.3947 17.8473 36.6948 17.0219 35.7438 16.968C34.7927 16.9142 33.9852 17.614 33.9313 18.5651C33.9134 18.6369 33.9134 18.7087 33.9313 18.7805ZM42.1321 18.7805C42.0962 16.8065 43.6754 15.1915 45.6493 15.1556C47.6232 15.1197 49.2382 16.6989 49.2741 18.6728C49.31 20.6467 47.7309 22.2618 45.757 22.2976C45.739 22.2976 45.7211 22.2976 45.7031 22.2976C43.783 22.3515 42.1859 20.8441 42.1321 18.924C42.1321 18.8702 42.1321 18.8164 42.1321 18.7805ZM44.0163 18.7805C43.9266 19.6956 44.6085 20.5211 45.5416 20.5929C46.4748 20.6647 47.2823 20.0007 47.354 19.0676C47.354 18.9779 47.354 18.8702 47.354 18.7805C47.4438 17.8653 46.7619 17.0398 45.8287 16.968C44.8956 16.8963 44.0881 17.5602 44.0163 18.4933C44.0163 18.5831 44.0163 18.6728 44.0163 18.7805ZM50.5662 13.5406C50.5662 12.2306 51.4455 11.782 52.4683 11.782C52.9708 11.782 53.8501 11.8717 53.8501 11.8717V13.6124C53.8501 13.6124 53.2758 13.5406 53.0605 13.5406C52.7016 13.5406 52.4683 13.6303 52.4683 14.0969V15.4427H53.7424V17.0398H52.4504V22.1002H50.5482V17.0398H49.5074V15.4427H50.5482L50.5662 13.5406ZM62.6609 14.6352C62.1047 14.0251 61.333 13.6662 60.5076 13.5944C59.8436 13.5944 59.2335 13.9354 59.2335 14.5634C59.2335 15.03 59.5206 15.3889 60.3461 15.7657L61.1895 16.1605C62.8045 16.9142 63.7735 17.7576 63.7735 19.3009C63.7735 20.8262 62.4815 22.3156 60.2384 22.3156C58.8567 22.3335 57.5467 21.7772 56.5777 20.7903L57.7082 19.2829C58.3542 19.9828 59.2514 20.4134 60.2025 20.4852C61.0818 20.4852 61.6202 20.0007 61.6202 19.3726C61.6202 18.6728 60.9921 18.278 60.0231 17.8294L59.3053 17.4884C57.9415 16.8424 57.0801 15.9093 57.0801 14.6352C57.0801 12.8407 58.6772 11.7641 60.4896 11.7641C61.7458 11.8358 62.9301 12.3383 63.8633 13.1996L62.6609 14.6352ZM66.3576 18.7805C66.2858 19.7136 66.9677 20.5211 67.9008 20.5929C67.9367 20.5929 67.9906 20.5929 68.0264 20.5929C68.6904 20.6108 69.2826 20.1981 69.4979 19.57L71.2744 20.1263C70.772 21.4722 69.4441 22.3515 68.0085 22.2797C66.0705 22.2976 64.4734 20.7544 64.4554 18.8164C64.4375 16.8783 65.9807 15.2812 67.9188 15.2633C67.9547 15.2633 67.9726 15.2633 68.0085 15.2633C69.4441 15.2095 70.772 16.0708 71.2744 17.4346L69.4979 17.9729C69.2826 17.3628 68.6904 16.9501 68.0264 16.9501C67.0933 16.9501 66.3396 17.7038 66.3396 18.6369C66.3396 18.6907 66.3396 18.7446 66.3576 18.7805ZM74.6122 22.1182H72.71V17.0578H71.7769V15.4607H74.5942L74.6122 22.1182ZM73.5714 11.9256C74.2533 11.9256 74.7916 12.4639 74.7916 13.1458C74.7916 13.8098 74.2353 14.366 73.5714 14.3481C72.9074 14.3481 72.3691 13.8098 72.3691 13.1458C72.3691 12.4639 72.9074 11.9256 73.5714 11.9256ZM82.5258 19.3368H77.5551C77.6807 20.1981 78.5062 20.7903 79.3675 20.6647C79.7982 20.5929 80.1751 20.3596 80.4263 20.0007L82.4002 20.1981C81.5927 21.9926 79.4573 22.8001 77.6628 21.9746C76.4067 21.4004 75.5812 20.1622 75.5632 18.7805C75.4915 16.9142 76.945 15.353 78.8113 15.2633C78.883 15.2633 78.9548 15.2633 79.0266 15.2633C80.857 15.2633 82.5258 16.4656 82.5258 19.247V19.3368ZM77.5013 18.0627H80.4801C80.3725 17.3449 79.7444 16.8245 79.0087 16.8424C78.2909 16.8245 77.6448 17.3449 77.5013 18.0627ZM87.2094 15.2633C88.4835 15.1736 89.5961 16.1426 89.6858 17.4167C89.6858 17.5243 89.6858 17.632 89.6858 17.7397V22.1182H87.8016V18.2242C87.8734 17.632 87.4427 17.0937 86.8505 17.0398C86.7967 17.0398 86.7249 17.0398 86.6711 17.0398C86.1148 17.0578 85.5944 17.3449 85.2534 17.7935V22.1182H83.3513V15.4427H85.1996V15.7119C85.1996 15.9452 85.1637 16.2323 85.1637 16.2323C85.6662 15.6222 86.4198 15.2633 87.2094 15.2633ZM92.4313 18.7805C92.3596 19.7136 93.0415 20.5211 93.9746 20.5929C94.0105 20.5929 94.0643 20.5929 94.1002 20.5929C94.7642 20.6108 95.3563 20.1981 95.5717 19.57L97.3482 20.1263C96.8458 21.4722 95.5179 22.3515 94.0823 22.2797C92.1442 22.2976 90.5471 20.7544 90.5292 18.8164C90.5113 16.8783 92.0545 15.2812 93.9925 15.2633C94.0284 15.2633 94.0464 15.2633 94.0823 15.2633C95.5179 15.2095 96.8458 16.0708 97.3482 17.4346L95.5717 17.9729C95.3563 17.3628 94.7642 16.9501 94.1002 16.9501C93.1671 16.9501 92.4134 17.7038 92.4134 18.6369C92.4134 18.6907 92.4313 18.7446 92.4313 18.7805ZM104.867 19.3368H99.8964C100.022 20.1981 100.847 20.7903 101.709 20.6647C102.139 20.5929 102.516 20.3596 102.768 20.0007L104.741 20.1981C103.934 21.9926 101.799 22.8001 100.004 21.9746C98.7479 21.4004 97.9224 20.1622 97.9045 18.7805C97.8327 16.9142 99.2863 15.353 101.153 15.2633C101.224 15.2633 101.296 15.2633 101.368 15.2633C103.198 15.2633 104.867 16.4656 104.867 19.247V19.3368ZM99.8605 18.0627H102.839C102.732 17.3449 102.104 16.8245 101.368 16.8424C100.632 16.8245 99.9861 17.3449 99.8605 18.0627Z" fill="black"/>
</svg>
